<svg xmlns="http://www.w3.org/2000/svg" xmlns:xlink="http://www.w3.org/1999/xlink" version="1.1" data-diagram-type="CLASS" style="width:775px;height:516px;background:#FFFFFF;" width="775px" height="516px" viewBox="0 0 775 516" zoomAndPan="magnify" preserveAspectRatio="none" contentStyleType="text/css"><?plantuml 1.2026.8beta1?><defs/><g font-family="sans-serif" lengthAdjust="spacing"><g class="title" data-source-line="1"><text x="239.625" y="22.995" fill="#000" font-size="14" textLength="289.468" font-weight="700">CarePlan sonemodell uten extension</text></g><!--class PlanerHackingPatient--><g class="entity" data-qualified-name="PlanerHackingPatient" id="ent0001" data-source-line="4"><rect x="346.55" y="408.377" width="182.09" height="80.594" fill="#F1F1F1" style="stroke:#181818;stroke-width:0.5;" rx="2.5" ry="2.5"/><ellipse cx="361.55" cy="424.377" rx="11" ry="11" fill="#ADD1B2" style="stroke:#181818;stroke-width:1;"/><path d="M364.519,430.018 Q363.941,430.314 363.3,430.455 Q362.659,430.611 361.956,430.611 Q359.456,430.611 358.128,428.971 Q356.816,427.314 356.816,424.189 Q356.816,421.064 358.128,419.408 Q359.456,417.752 361.956,417.752 Q362.659,417.752 363.3,417.908 Q363.956,418.064 364.519,418.361 L364.519,421.08 Q363.894,420.502 363.3,420.236 Q362.706,419.955 362.081,419.955 Q360.738,419.955 360.05,421.033 Q359.363,422.096 359.363,424.189 Q359.363,426.283 360.05,427.361 Q360.738,428.424 362.081,428.424 Q362.706,428.424 363.3,428.158 Q363.894,427.877 364.519,427.299 L364.519,430.018 Z " fill="#000"/><text x="375.55" y="429.224" fill="#000" font-size="14" textLength="150.09">PlanerHackingPatient</text><line x1="347.55" y1="440.377" x2="527.64" y2="440.377" style="stroke:#181818;stroke-width:0.5;"/><g data-visibility-modifier="PUBLIC_FIELD"><ellipse cx="357.55" cy="454.025" rx="3" ry="3" fill="none" style="stroke:#038048;stroke-width:1;"/></g><text x="366.55" y="457.372" fill="#000" font-size="14" textLength="62.829">identifier</text><g data-visibility-modifier="PUBLIC_FIELD"><ellipse cx="357.55" cy="470.322" rx="3" ry="3" fill="none" style="stroke:#038048;stroke-width:1;"/></g><text x="366.55" y="473.669" fill="#000" font-size="14" textLength="39.703">name</text><line x1="347.55" y1="480.971" x2="527.64" y2="480.971" style="stroke:#181818;stroke-width:0.5;"/></g><!--class PlanerHackingCarePlan--><g class="entity" data-qualified-name="PlanerHackingCarePlan" id="ent0002" data-source-line="9"><rect x="326.08" y="44.297" width="223.039" height="96.891" fill="#F1F1F1" style="stroke:#181818;stroke-width:0.5;" rx="2.5" ry="2.5"/><ellipse cx="353.598" cy="60.297" rx="11" ry="11" fill="#ADD1B2" style="stroke:#181818;stroke-width:1;"/><path d="M356.567,65.938 Q355.988,66.234 355.348,66.375 Q354.707,66.531 354.004,66.531 Q351.504,66.531 350.176,64.891 Q348.863,63.234 348.863,60.109 Q348.863,56.984 350.176,55.328 Q351.504,53.672 354.004,53.672 Q354.707,53.672 355.348,53.828 Q356.004,53.984 356.567,54.281 L356.567,57 Q355.942,56.422 355.348,56.156 Q354.754,55.875 354.129,55.875 Q352.785,55.875 352.098,56.953 Q351.41,58.016 351.41,60.109 Q351.41,62.203 352.098,63.281 Q352.785,64.344 354.129,64.344 Q354.754,64.344 355.348,64.078 Q355.942,63.797 356.567,63.219 L356.567,65.938 Z " fill="#000"/><text x="370.38" y="65.144" fill="#000" font-size="14" textLength="163.222">PlanerHackingCarePlan</text><line x1="327.08" y1="76.297" x2="548.119" y2="76.297" style="stroke:#181818;stroke-width:0.5;"/><g data-visibility-modifier="PUBLIC_FIELD"><ellipse cx="337.08" cy="89.945" rx="3" ry="3" fill="none" style="stroke:#038048;stroke-width:1;"/></g><text x="346.08" y="93.292" fill="#000" font-size="14" textLength="27.371">title</text><g data-visibility-modifier="PUBLIC_FIELD"><ellipse cx="337.08" cy="106.242" rx="3" ry="3" fill="none" style="stroke:#038048;stroke-width:1;"/></g><text x="346.08" y="109.589" fill="#000" font-size="14" textLength="106.948">addresses[1..*]</text><line x1="327.08" y1="116.891" x2="548.119" y2="116.891" style="stroke:#181818;stroke-width:0.5;"/><g data-visibility-modifier="PUBLIC_METHOD"><ellipse cx="337.08" cy="130.539" rx="3" ry="3" fill="#84BE84" style="stroke:#038048;stroke-width:1;"/></g><text x="346.08" y="133.886" fill="#000" font-size="14" textLength="197.039">description (personlige mål)</text></g><!--class PlanerHackingZoneCondition--><g class="entity" data-qualified-name="PlanerHackingZoneCondition" id="ent0003" data-source-line="15"><rect x="7" y="218.187" width="247.19" height="113.188" fill="#F1F1F1" style="stroke:#181818;stroke-width:0.5;" rx="2.5" ry="2.5"/><ellipse cx="27.412" cy="234.187" rx="11" ry="11" fill="#ADD1B2" style="stroke:#181818;stroke-width:1;"/><path d="M30.381,239.828 Q29.802,240.124 29.162,240.265 Q28.521,240.421 27.818,240.421 Q25.318,240.421 23.99,238.781 Q22.677,237.124 22.677,233.999 Q22.677,230.874 23.99,229.218 Q25.318,227.562 27.818,227.562 Q28.521,227.562 29.162,227.718 Q29.818,227.874 30.381,228.171 L30.381,230.89 Q29.756,230.312 29.162,230.046 Q28.568,229.765 27.943,229.765 Q26.599,229.765 25.912,230.843 Q25.224,231.906 25.224,233.999 Q25.224,236.093 25.912,237.171 Q26.599,238.234 27.943,238.234 Q28.568,238.234 29.162,237.968 Q29.756,237.687 30.381,237.109 L30.381,239.828 Z " fill="#000"/><text x="42.615" y="239.034" fill="#000" font-size="14" textLength="203.164">PlanerHackingZoneCondition</text><line x1="8" y1="250.187" x2="253.19" y2="250.187" style="stroke:#181818;stroke-width:0.5;"/><g data-visibility-modifier="PUBLIC_FIELD"><ellipse cx="18" cy="263.835" rx="3" ry="3" fill="none" style="stroke:#038048;stroke-width:1;"/></g><text x="27" y="267.182" fill="#000" font-size="14" textLength="144.737">clinicalStatus: active</text><g data-visibility-modifier="PUBLIC_FIELD"><ellipse cx="18" cy="280.132" rx="3" ry="3" fill="none" style="stroke:#038048;stroke-width:1;"/></g><text x="27" y="283.479" fill="#000" font-size="14" textLength="183.518">severity: green|yellow|red</text><g data-visibility-modifier="PUBLIC_FIELD"><ellipse cx="18" cy="296.429" rx="3" ry="3" fill="none" style="stroke:#038048;stroke-width:1;"/></g><text x="27" y="299.776" fill="#000" font-size="14" textLength="221.19">code.text: observasjonsområde</text><g data-visibility-modifier="PUBLIC_FIELD"><ellipse cx="18" cy="312.726" rx="3" ry="3" fill="none" style="stroke:#038048;stroke-width:1;"/></g><text x="27" y="316.073" fill="#000" font-size="14" textLength="170.769">note.text: anbefalt tiltak</text><line x1="8" y1="323.374" x2="253.19" y2="323.374" style="stroke:#181818;stroke-width:0.5;"/></g><g class="entity" data-qualified-name="GMN7" id="ent0008" data-source-line="27"><path d="M288.89,239.517 L288.89,270.777 L254.68,274.777 L288.89,278.777 L288.89,310.048 A0,0 0 0 0 288.89,310.048 L674.309,310.048 A0,0 0 0 0 674.309,310.048 L674.309,249.517 L664.309,239.517 L288.89,239.517 A0,0 0 0 0 288.89,239.517" style="stroke:#181818;stroke-width:0.5;" fill="#FEFFDD"/><path d="M664.309,239.517 L664.309,249.517 L674.309,249.517 L664.309,239.517" style="stroke:#181818;stroke-width:0.5;" fill="#FEFFDD"/><text x="294.89" y="256.584" fill="#000" font-size="13" textLength="67.418">Eksempel:</text><text x="294.89" y="271.717" fill="#000" font-size="13" textLength="217.807">- code.text = "Peak flow 50-80%"</text><text x="294.89" y="286.849" fill="#000" font-size="13" textLength="294.398">- severity.coding[zoneSystem].code = yellow</text><text x="294.89" y="301.982" fill="#000" font-size="13" textLength="364.419">- note.text = "Øk medikamentdose og kontakt fastlege"</text></g><!--link PlanerHackingCarePlan to PlanerHackingPatient--><g class="link" data-entity-1="ent0002" data-entity-2="ent0001" id="lnk4" data-source-line="22" data-link-type="dependency"><path d="M549.43,119.227 C602.17,137.467 660.28,167.977 691.6,218.187 C718.22,260.867 718.77,289.037 691.6,331.377 C655.9,386.977 591.081,415.048 533.731,430.348" style="stroke:#181818;stroke-width:1;" fill="none" id="PlanerHackingCarePlan-to-PlanerHackingPatient" codeLine="22"/><polygon points="528.9,431.637,538.627,433.182,533.731,430.348,536.565,425.452,528.9,431.637" fill="#181818" style="stroke:#181818;stroke-width:1;stroke-linejoin:miter;stroke-miterlimit:10;"/><text x="712.6" y="279.344" fill="#000" font-size="13" textLength="47.119">subject</text></g><!--link PlanerHackingCarePlan to PlanerHackingZoneCondition--><g class="link" data-entity-1="ent0002" data-entity-2="ent0003" id="lnk5" data-source-line="23" data-link-type="dependency"><path d="M356.13,141.517 C316.16,164.957 272.083,190.808 230.383,215.258" style="stroke:#181818;stroke-width:1;" fill="none" id="PlanerHackingCarePlan-to-PlanerHackingZoneCondition" codeLine="23"/><polygon points="226.07,217.787,235.857,216.685,230.383,215.258,231.811,209.784,226.07,217.787" fill="#181818" style="stroke:#181818;stroke-width:1;stroke-linejoin:miter;stroke-miterlimit:10;"/><text x="302.6" y="184.254" fill="#000" font-size="13" textLength="66.13">addresses</text><text x="213.307" y="207.002" fill="#000" font-size="13" textLength="23.036">1..*</text></g><!--link PlanerHackingZoneCondition to PlanerHackingPatient--><g class="link" data-entity-1="ent0003" data-entity-2="ent0001" id="lnk6" data-source-line="24" data-link-type="dependency"><path d="M230.69,331.827 C275.14,356.707 322.047,382.974 362.427,405.584" style="stroke:#181818;stroke-width:1;" fill="none" id="PlanerHackingZoneCondition-to-PlanerHackingPatient" codeLine="24"/><polygon points="366.79,408.027,360.891,400.14,362.427,405.584,356.983,407.12,366.79,408.027" fill="#181818" style="stroke:#181818;stroke-width:1;stroke-linejoin:miter;stroke-miterlimit:10;"/><text x="311.6" y="374.444" fill="#000" font-size="13" textLength="47.119">subject</text></g><g class="footer" data-source-line="2"><text x="231.559" y="507.253" fill="#888" font-size="10" textLength="305.601">Pasientens planer: sone via CarePlan.addresses -> Condition</text></g><?plantuml-src ZL91QXmn4Bph5Ss08RRPmJa4ma1oCGOV1toByQ5tr3DfZqPQrBsRREBy8n_mI_PZQOtjEQsNN8GaggghIbBMG72DcTg04IH5cfAd462h585-sYgSekjJKihGeZ35SWaR8r1kPWxi61UL6htF9482gwzmdQ9dBHAk2oW2xSoxnMxaEBIeHGz-Eu1BzhRbdYcNKyI9t9-ZhCNlJDEIeMmyIPTvKuR1XmrbSnPu89WEp-6y01PZzn_h-kBX7VLl5cXn_JAY2novmt2dg5jf03lbtJnJQ4UPTT_0a8dYqzwwIp-UClcPPrtMQYqsaDP2UOVocAAaAH-U_SoFLkih0kEQUWmAoa5nBEwEfrvPhKTRjCVOhX-fqnF4gaIlJYKs9syzkHEm_t3XIZh8F7nNIFs9cUvc59es51gtWgKq-09LIpX2RvN2fwlLvwkpoW1ldTU6DANxNoPrjnUbwQ5SaV5Udi6mIxz5xF1tX8ayZ_Qrelea16c0CKMhMw57iOyqKEKe-fdu3m00?></g></svg>